<svg width="55" height="25" viewBox="0 0 55 25" fill="none" xmlns="http://www.w3.org/2000/svg">
<g opacity="0.5">
<mask id="mask0_439_318" style="mask-type:alpha" maskUnits="userSpaceOnUse" x="0" y="0" width="55" height="25">
<rect width="55" height="25" fill="#D9D9D9"/>
</mask>
<g mask="url(#mask0_439_318)">
<path d="M20.459 15.8174C20.459 17.1329 20.459 18.4412 20.459 19.7522C20.8597 19.7522 21.2532 19.7522 21.6549 19.7522C21.6549 18.4322 21.6549 17.1248 21.6549 15.8174C21.2487 15.8174 20.8516 15.8174 20.459 15.8174Z" fill="#202020"/>
<path d="M19.6221 21.9764C19.2939 21.3979 18.7463 21.0969 18.1325 20.921C17.7145 20.8023 17.2784 20.7805 16.8432 20.7823C16.2285 20.7841 15.6147 20.7823 15 20.7823C15 22.1088 15 23.4352 15 24.7616C15.7924 24.7553 16.5857 24.7462 17.379 24.7362C17.7752 24.7308 18.1578 24.6501 18.5223 24.4959C19.0572 24.2675 19.5097 23.9501 19.7218 23.3762C19.9004 22.8948 19.8705 22.4152 19.6221 21.9764ZM17.739 23.9202C17.4606 24.0299 17.176 24.078 16.8795 24.0762C16.661 24.0744 16.4434 24.0762 16.2194 24.0762C16.2194 23.1895 16.2194 22.2837 16.2194 21.3544C16.7036 21.4487 17.2004 21.3426 17.6674 21.5212C18.0645 21.6745 18.3764 21.9238 18.5033 22.3445C18.7036 23.01 18.4326 23.6528 17.739 23.9202Z" fill="#202020"/>
<path d="M22.9504 24.1552C22.6413 24.0835 22.3085 23.8732 22.3221 23.496C23.2913 23.496 24.2605 23.496 25.2424 23.496C25.2733 23.147 25.2143 22.8305 25.0638 22.5314C24.8471 22.0934 24.4636 21.8641 24.0139 21.738C23.6839 21.6437 23.3484 21.6175 23.0012 21.6501C22.4291 21.7018 21.9105 21.8541 21.4953 22.2793C21.1507 22.6329 21.0265 23.0472 21.1281 23.5287C21.2106 23.9167 21.4499 24.2014 21.77 24.4163C22.1616 24.6837 22.6059 24.7952 23.0719 24.8116C23.3992 24.8234 23.7292 24.817 24.0538 24.7835C24.334 24.7554 24.6078 24.6774 24.8825 24.6121C24.9133 24.6058 24.9532 24.5477 24.955 24.5115C24.9623 24.3057 24.9577 24.1017 24.9577 23.9004C24.8208 23.962 24.693 24.0364 24.5561 24.0754C24.0275 24.2195 23.4908 24.2739 22.9504 24.1552ZM22.6086 22.3954C22.9785 22.2004 23.3639 22.1687 23.7519 22.341C23.9559 22.4316 24.0475 22.5812 24.1399 22.913C23.5352 22.913 22.9377 22.913 22.343 22.913C22.3058 22.7363 22.4164 22.4951 22.6086 22.3954Z" fill="#202020"/>
<path d="M38.6104 24.1976C38.4744 24.1296 38.3801 24.0262 38.3928 23.8467C38.4055 23.6454 38.3946 23.4441 38.3946 23.241C38.3946 22.9962 38.3946 22.7524 38.3946 22.494C38.7255 22.494 39.0446 22.494 39.3592 22.494C39.3592 22.2764 39.3592 22.0724 39.3592 21.8602C39.0338 21.8602 38.7182 21.8602 38.3909 21.8602C38.3909 21.6027 38.3909 21.3534 38.3909 21.1113C37.9893 21.1113 37.6013 21.1113 37.2014 21.1113C37.2014 21.3643 37.2014 21.6109 37.2014 21.8693C36.8932 21.8693 36.5922 21.8693 36.293 21.8693C36.293 22.0842 36.293 22.2845 36.293 22.4976C36.5994 22.4976 36.9004 22.4976 37.2087 22.4976C37.2087 22.5592 37.2087 22.6073 37.2087 22.6563C37.2087 23.1431 37.2051 23.6291 37.2105 24.116C37.2141 24.3018 37.283 24.4741 37.4145 24.6064C37.6076 24.8068 37.8551 24.8984 38.1226 24.9464C38.2151 24.9637 38.3048 24.9818 38.3955 24.9999C38.5442 24.9999 38.6947 24.9999 38.8434 24.9999C38.9603 24.9818 39.0809 24.9745 39.1942 24.9437C39.2668 24.9247 39.391 24.9682 39.3964 24.8358C39.4046 24.6409 39.3991 24.446 39.3991 24.2501C39.1199 24.3082 38.8579 24.3236 38.6104 24.1976Z" fill="#202020"/>
<path d="M35.582 15.8311C35.5829 16.0595 35.5829 16.2681 35.5829 16.4902C36.1197 16.4902 36.6473 16.4902 37.1886 16.4902C37.1886 17.6045 37.1886 18.7015 37.1886 19.8013C37.5694 19.8013 37.9375 19.8013 38.3183 19.8013C38.3183 18.6961 38.3183 17.5963 38.3183 16.4884C38.8532 16.4884 39.3754 16.4884 39.8977 16.4884C39.8977 16.2708 39.8977 16.0514 39.8977 15.8311C38.4579 15.8311 37.02 15.8311 35.582 15.8311Z" fill="#202020"/>
<path d="M19.7318 17.2698C19.5677 16.792 19.2123 16.4638 18.7716 16.2272C18.253 15.9489 17.69 15.8373 17.1052 15.8319C16.4044 15.8246 15.7008 15.8301 15 15.8301C15 17.1565 15 18.4829 15 19.8094C15.7181 19.803 16.4352 19.7822 17.1533 19.7876C17.6275 19.7903 18.0817 19.7187 18.5196 19.5428C18.9158 19.386 19.263 19.1557 19.516 18.8066C19.8587 18.3342 19.9167 17.8084 19.7318 17.2698ZM18.137 18.7404C17.8849 18.9499 17.5885 19.0632 17.2675 19.0967C17.0209 19.1203 16.7707 19.114 16.5232 19.1266C16.4252 19.1303 16.3264 19.1466 16.2176 19.1575C16.2176 18.2309 16.2176 17.327 16.2176 16.4375C16.408 16.4375 16.593 16.4294 16.7779 16.4375C16.9683 16.4466 17.1578 16.4702 17.3473 16.4892C17.6873 16.5191 17.9711 16.6787 18.2104 16.9099C18.7018 17.3814 18.6964 18.2771 18.137 18.7404Z" fill="#202020"/>
<path d="M37.4112 6.48343C37.3169 5.90589 37.1256 5.35374 36.8563 4.83424C36.5843 4.30929 36.2543 3.81607 35.8545 3.38088C35.3994 2.88676 34.9052 2.43525 34.3495 2.05446C33.6794 1.5957 32.975 1.20584 32.2152 0.921152C31.8 0.765209 31.3802 0.614706 30.9495 0.501375C30.4327 0.365378 29.9051 0.266554 29.3792 0.16229C29.1381 0.114237 28.8951 0.0843181 28.6494 0.058932C28.4417 0.0371725 28.235 0.0335459 27.9975 0.0208529C28.051 0.126024 27.9413 0.248421 28.1126 0.292847C28.4998 0.395298 28.8987 0.478709 29.2704 0.624679C29.7328 0.806008 30.1916 1.01 30.6177 1.26296C31.2306 1.62652 31.7864 2.07713 32.2315 2.64559C32.4917 2.97833 32.7374 3.32286 32.9079 3.70909C33.0693 4.07628 33.2198 4.44982 33.344 4.83152C33.4301 5.09444 33.4727 5.37369 33.519 5.64841C33.5725 5.98477 33.6287 6.32295 33.6432 6.66294C33.6604 7.05552 33.6486 7.45082 33.6196 7.84249C33.5915 8.20696 33.5371 8.57143 33.4609 8.92865C33.2968 9.71743 32.9786 10.4482 32.5289 11.1173C32.2025 11.606 31.8081 12.0384 31.3602 12.4247C30.9305 12.7991 30.4536 13.1047 29.9441 13.3504C29.2423 13.6867 28.4998 13.8971 27.7264 13.9841C27.3184 14.0303 26.9023 14.0267 26.4906 14.0122C26.0591 13.9986 25.6248 13.9642 25.196 13.908C24.749 13.8472 24.3002 13.7738 23.865 13.6622C23.1261 13.4728 22.3999 13.2307 21.7226 12.8717C21.3028 12.6486 20.8839 12.4201 20.4868 12.1599C20.0172 11.8526 19.5911 11.4863 19.2193 11.0593C18.8159 10.5987 18.4958 10.0964 18.3626 9.49077C18.2737 9.08097 18.2991 8.68114 18.4904 8.30306C18.7316 7.82345 19.1105 7.46895 19.5412 7.1625C19.9864 6.8479 20.4633 6.59766 20.9637 6.3846C21.6818 6.07725 22.4234 5.83699 23.1914 5.69102C23.7018 5.5931 24.2141 5.49518 24.7299 5.43172C25.2204 5.37097 25.7155 5.34196 26.2105 5.32564C26.6167 5.31204 27.0238 5.33924 27.4308 5.3474C27.4716 5.3483 27.5152 5.34377 27.5659 5.34105C27.5659 3.55405 27.5659 1.77703 27.5659 0C27.303 0 27.0401 0 26.7762 0C26.7635 0.00815981 26.7509 0.0235728 26.7363 0.0244794C26.3746 0.043519 26.0147 0.058932 25.6529 0.0806915C25.4553 0.0915713 25.2558 0.107891 25.0591 0.136904C24.7517 0.181329 24.4462 0.232101 24.1424 0.291033C23.7363 0.369912 23.321 0.437003 22.9239 0.550334C22.3808 0.706277 21.8423 0.87854 21.3164 1.08616C20.8758 1.26114 20.446 1.47602 20.0326 1.70721C19.5376 1.98555 19.0761 2.32011 18.6509 2.70362C18.281 3.03817 17.9482 3.40174 17.6572 3.80519C17.3199 4.27574 17.047 4.78165 16.8557 5.32836C16.7814 5.54323 16.7061 5.75992 16.6653 5.98205C16.6037 6.3157 16.5774 6.6566 16.5275 6.99387C16.4586 7.46532 16.513 7.93225 16.5946 8.39282C16.6689 8.80988 16.7986 9.21424 16.969 9.60592C17.2148 10.1717 17.5348 10.6885 17.9319 11.1554C18.1985 11.47 18.485 11.7746 18.7978 12.0448C19.1659 12.3639 19.5557 12.6658 19.9664 12.9306C20.3953 13.2035 20.8522 13.4338 21.3074 13.6604C21.6174 13.8146 21.9393 13.9524 22.2693 14.0603C22.748 14.218 23.2358 14.354 23.7263 14.4737C24.1515 14.5761 24.584 14.6577 25.0164 14.7212C25.4027 14.7765 25.7907 14.8073 26.1806 14.8264C26.5505 14.8445 26.9213 14.8445 27.2894 14.8264C27.8189 14.8046 28.3502 14.7711 28.876 14.7221C29.2523 14.6868 29.6322 14.6387 29.9994 14.5553C30.5026 14.442 30.9985 14.2896 31.4999 14.1546C32.052 14.0041 32.5797 13.7828 33.0892 13.5272C33.4881 13.3277 33.8671 13.0865 34.2497 12.8562C34.6885 12.5861 35.092 12.2615 35.4592 11.9015C35.6342 11.7338 35.801 11.5625 35.9551 11.3775C36.1555 11.14 36.3513 10.8988 36.52 10.6422C36.8019 10.2025 37.0286 9.73285 37.1963 9.23147C37.3749 8.69836 37.4692 8.15256 37.4901 7.5986C37.5046 7.22778 37.4692 6.84971 37.4112 6.48343Z" fill="#202020"/>
<path d="M33.3418 21.875C33.3418 22.8496 33.3418 23.8134 33.3418 24.7826C33.7244 24.7826 34.0998 24.7826 34.4869 24.7826C34.4869 23.808 34.4869 22.837 34.4869 21.875C34.0979 21.875 33.719 21.875 33.3418 21.875Z" fill="#202020"/>
<path d="M33.3438 20.5029C33.3438 20.7523 33.3438 20.998 33.3438 21.2482C33.7345 21.2482 34.1117 21.2482 34.487 21.2482C34.487 20.9943 34.487 20.7477 34.487 20.5029C34.0999 20.5029 33.7245 20.5029 33.3438 20.5029Z" fill="#202020"/>
<path d="M27.3685 5.66273C27.0847 5.69809 26.7918 5.71169 26.5108 5.77425C26.0547 5.87579 25.6123 6.03446 25.2007 6.25568C24.6467 6.55215 24.1544 6.93294 23.7591 7.42797C23.5197 7.72807 23.3185 8.05174 23.187 8.4135C23.0827 8.70181 22.9794 8.98922 22.9794 9.3011C22.9785 9.59576 22.9567 9.89405 22.9966 10.1842C23.0383 10.4843 23.1462 10.7699 23.2922 11.0419C23.4871 11.4009 23.7337 11.7191 24.032 11.9875C24.2705 12.2015 24.5406 12.3873 24.8108 12.5605C25.2406 12.8343 25.7002 13.0437 26.1953 13.1725C26.4736 13.2441 26.7501 13.3157 27.0321 13.3774C27.1917 13.4118 27.3558 13.4227 27.5298 13.4427C27.5298 10.827 27.5298 8.23398 27.5298 5.63281C27.47 5.64369 27.4192 5.65639 27.3685 5.66273Z" fill="#202020"/>
<path d="M30.7475 16.4874C30.7475 16.2571 30.7475 16.0359 30.7475 15.8174C29.6822 15.8174 28.6268 15.8174 27.5742 15.8174C27.5742 17.142 27.5742 18.4566 27.5742 19.7776C28.6214 19.7776 29.6668 19.7776 30.7185 19.7776C30.7185 19.5473 30.7185 19.3261 30.7185 19.0958C30.024 19.0958 29.3404 19.0958 28.6558 19.0958C28.6558 18.7767 28.6558 18.4711 28.6558 18.1466C29.3159 18.1466 29.966 18.1466 30.6178 18.1466C30.6178 17.9145 30.6178 17.695 30.6178 17.4648C29.9587 17.4648 29.3077 17.4648 28.6577 17.4648C28.6577 17.132 28.6577 16.8147 28.6577 16.4874C29.3594 16.4874 30.0512 16.4874 30.7475 16.4874Z" fill="#202020"/>
<path d="M25.6679 17.8738C25.9471 17.8004 26.2118 17.7052 26.3886 17.4323C26.5183 17.2292 26.5482 17.018 26.5419 16.7913C26.5337 16.4812 26.3705 16.2509 26.123 16.1059C25.7413 15.881 25.3134 15.8049 24.87 15.8067C24.6161 15.8085 24.3605 15.8067 24.1066 15.8067C23.6342 15.8067 23.1601 15.8067 22.6777 15.8067C22.6777 17.1422 22.6777 18.4595 22.6777 19.7751C23.0748 19.7751 23.462 19.7751 23.8591 19.7751C23.8591 19.2474 23.8591 18.7324 23.8591 18.2057C24.0386 18.2057 24.21 18.1939 24.3795 18.2075C24.5853 18.222 24.7648 18.309 24.8682 18.4967C25.0867 18.8938 25.2998 19.2964 25.5092 19.6989C25.5409 19.7624 25.5708 19.7878 25.6425 19.7878C26.0024 19.7841 26.3633 19.7859 26.7223 19.785C26.7486 19.785 26.7749 19.7751 26.8166 19.7678C26.3986 19.1395 26.1375 18.4378 25.6679 17.8738ZM25.1583 17.3289C24.9734 17.4513 24.773 17.5139 24.5536 17.5175C24.326 17.5193 24.0994 17.5175 23.8564 17.5175C23.8564 17.1603 23.8564 16.8221 23.8564 16.4858C24.1692 16.4858 24.4811 16.4876 24.792 16.4858C24.9652 16.4839 25.0912 16.5737 25.2145 16.6789C25.404 16.8412 25.3523 17.202 25.1583 17.3289Z" fill="#202020"/>
<path d="M34.6509 19.1249C34.1804 19.1385 33.7135 19.143 33.2583 18.9961C32.8957 18.881 32.5856 18.7014 32.4197 18.3415C32.2873 18.0532 32.2955 17.7522 32.3698 17.4457C32.4278 17.1964 32.5448 16.9806 32.7361 16.8211C33.0652 16.5382 33.4723 16.4602 33.8884 16.4421C34.0797 16.4321 34.2729 16.4475 34.4642 16.4666C34.7135 16.491 34.9655 16.5364 35.2384 16.5763C35.2684 16.4076 35.3037 16.2181 35.3327 16.0305C35.3382 16.0114 35.3083 15.9743 35.2829 15.967C34.9782 15.8564 34.6682 15.7684 34.3445 15.7548C34.1015 15.7449 33.8594 15.7412 33.6183 15.7558C33.3807 15.773 33.1441 15.7938 32.9138 15.85C32.4414 15.9634 31.9881 16.1338 31.6173 16.4756C31.4242 16.6524 31.2664 16.8501 31.1749 17.0967C31.0651 17.3904 31.0207 17.6896 31.067 18.0097C31.1205 18.3941 31.2655 18.7305 31.5257 19.0124C31.8476 19.3597 32.2565 19.5755 32.7053 19.6997C33.1722 19.8311 33.6455 19.8946 34.1341 19.8692C34.5149 19.8493 34.8867 19.794 35.2675 19.6933C35.2475 19.4757 35.2267 19.2627 35.2085 19.0505C35.0072 19.0777 34.8314 19.1185 34.6509 19.1249Z" fill="#202020"/>
<path d="M31.2804 22.9852C31.2306 22.7177 31.1245 22.4793 30.945 22.2753C30.6548 21.9489 30.2722 21.7957 29.8597 21.7657C29.2649 21.7213 28.6711 21.7485 28.1634 22.2209C28.1634 21.6171 28.1634 21.0459 28.1634 20.4756C27.7572 20.4756 27.3782 20.4756 27.002 20.4756C27.002 21.9081 27.002 23.3333 27.002 24.755C27.3973 24.755 27.7799 24.755 28.177 24.755C28.177 24.6552 28.177 24.5591 28.177 24.4612C28.2014 24.4675 28.2223 24.4657 28.2332 24.4757C28.5061 24.735 28.8506 24.8302 29.2051 24.8619C29.6104 24.8991 30.0211 24.8882 30.4019 24.7042C30.7564 24.5328 31.0284 24.2835 31.1825 23.9109C31.304 23.609 31.3366 23.3043 31.2804 22.9852ZM29.6557 24.0868C29.2522 24.3034 28.7418 24.24 28.4073 23.9281C28.235 23.774 28.1362 23.5727 28.1697 23.3397C28.099 22.8474 28.6131 22.4729 29.0111 22.4412C29.3338 22.4149 29.6185 22.4793 29.8561 22.6978C30.3167 23.1212 30.1961 23.7975 29.6557 24.0868Z" fill="#202020"/>
</g>
</g>
</svg>
