<svg width="55" height="25" viewBox="0 0 55 25" fill="none" xmlns="http://www.w3.org/2000/svg">
<g opacity="0.5">
<mask id="mask0_439_261" style="mask-type:alpha" maskUnits="userSpaceOnUse" x="0" y="0" width="55" height="25">
<rect width="55" height="25" fill="#D9D9D9"/>
</mask>
<g mask="url(#mask0_439_261)">
<path d="M39.6737 5.06445L38.6621 7.52041H40.6955L39.6737 5.06445Z" fill="#202020"/>
<path d="M4.71296 5.06445L3.71289 7.52041H5.72106L4.71296 5.06445Z" fill="#202020"/>
<path d="M27.9243 5.41216C27.7498 5.31341 27.4811 5.30078 27.2262 5.30078H25.4121V6.66827H27.2021C27.4857 6.66827 27.7245 6.66367 27.9301 6.54197C28.1195 6.44207 28.2332 6.22507 28.2332 5.95639C28.2332 5.69231 28.1149 5.50171 27.9243 5.41216Z" fill="#202020"/>
<path d="M34.2336 16.0098C34.0545 15.903 33.7904 15.8984 33.5309 15.8984H31.7168V17.282H33.5068C33.7939 17.282 34.0384 17.2728 34.2371 17.1568C34.4277 17.0397 34.5413 16.8296 34.5413 16.5644C34.5379 16.2992 34.4242 16.1086 34.2336 16.0098Z" fill="#202020"/>
<path d="M27.0643 15.8975H25.1445V17.467H27.0459C27.612 17.467 27.9645 17.1869 27.9645 16.6553C27.9633 16.1133 27.597 15.8975 27.0643 15.8975Z" fill="#202020"/>
<path d="M54.266 16.8215C54.2557 16.8112 54.2442 16.7997 54.2339 16.7917C54.5129 16.6103 54.6989 16.2957 54.6989 15.9374V14.6251C54.6989 14.0613 54.243 13.6066 53.6804 13.6066H50.7296C49.8099 13.6066 49.1164 13.8776 48.6112 14.2863C48.47 13.8914 48.1072 13.6066 47.6628 13.6066H44.712C43.9002 13.6066 43.2607 13.8075 42.7739 14.1382C42.597 13.8225 42.279 13.6066 41.8978 13.6066H36.9836C36.5875 13.6066 36.2533 13.8374 36.0846 14.1669C36.0145 14.1176 35.9628 14.0601 35.8894 14.0165C35.1763 13.6353 34.4185 13.6066 33.6378 13.6066H30.2357C29.8396 13.6066 29.5043 13.8397 29.3367 14.1715C28.8189 13.8351 28.0944 13.6066 27.0644 13.6066H22.3592C22.0756 13.6066 21.8058 13.7214 21.6117 13.9304L20.4968 15.1326L19.4267 13.9442C19.235 13.7249 18.9606 13.6055 18.6701 13.6055H12.7478C12.1851 13.6055 11.7305 14.0613 11.7305 14.6239V20.7862C11.7305 21.35 12.1863 21.8046 12.7478 21.8046H18.5817C18.8653 21.8046 19.1351 21.6864 19.328 21.4774L20.4521 20.2615L21.5187 21.4613C21.7116 21.6795 21.9895 21.8023 22.28 21.8023H25.1424C25.7061 21.8023 26.1608 21.3465 26.1608 20.7862V19.7345H26.9795C27.9749 19.7345 28.6949 19.5301 29.2184 19.2189V20.7862C29.2184 21.3477 29.6743 21.8023 30.2369 21.8023H31.7169C32.2806 21.8023 32.7353 21.3465 32.7353 20.7862V19.5508H33.2899C33.4254 19.5508 33.5207 19.5553 33.5896 19.5599C33.5941 19.6702 33.5941 19.8022 33.5919 19.8895V20.7862C33.5919 21.3477 34.05 21.8023 34.6103 21.8023H36.088C36.2533 21.8023 36.4026 21.7576 36.5381 21.6875C36.6759 21.7553 36.824 21.8023 36.987 21.8023H41.9024C42.062 21.8023 42.2101 21.7576 42.3444 21.6921C42.4788 21.7576 42.6234 21.8023 42.7865 21.8023H45.6547C46.5675 21.8023 47.3115 21.5784 47.8683 21.1835C48.021 21.5463 48.3816 21.8023 48.803 21.8023H51.6711C53.7574 21.8023 55.0009 20.6943 55.0009 18.84C55.0009 17.9812 54.7689 17.3417 54.266 16.8215ZM26.9806 18.716H25.1435V20.7839H22.2811L20.467 18.7447L18.5817 20.7839H12.7478V14.6205H18.6701L20.4842 16.6413L22.358 14.6205H27.0633C28.231 14.6205 29.5457 14.9477 29.5457 16.6539C29.5457 18.3635 28.2689 18.7195 26.9806 18.716ZM35.1247 17.9226C35.4508 18.042 35.7183 18.259 35.8423 18.4405C36.0524 18.7413 36.08 19.0214 36.0869 19.5645V20.7862H34.6091V20.0146C34.6091 19.6449 34.6447 19.0949 34.3692 18.8079C34.1579 18.5886 33.8307 18.5369 33.291 18.5369H31.718V20.7862H30.238V14.6239H33.6401C34.3841 14.6239 34.926 14.6549 35.4117 14.9132C35.8756 15.1934 36.1684 15.5792 36.1684 16.2807C36.1684 17.2659 35.5105 17.7676 35.1247 17.9226ZM41.9001 15.8972H38.451V17.019H41.8151V18.2774H38.451V19.5014L41.9001 19.5083V20.7862H36.9859V14.6239H41.9001V15.8972ZM45.6558 20.7793H42.7876V19.4555H45.6432C45.921 19.4555 46.1197 19.421 46.2437 19.3027C46.3447 19.2086 46.4159 19.0674 46.4159 18.8997C46.4159 18.7206 46.3401 18.5794 46.2368 18.4933C46.122 18.3991 45.9704 18.3566 45.7121 18.3566C44.3365 18.3119 42.6108 18.3991 42.6108 16.4507C42.6108 15.5539 43.1711 14.6159 44.7166 14.6159H47.6674V15.9271H44.9657C44.6959 15.9271 44.5225 15.9386 44.3756 16.0396C44.2137 16.1407 44.1528 16.2888 44.1528 16.484C44.1528 16.717 44.2895 16.872 44.4743 16.9432C44.6316 16.9972 44.797 17.0133 45.0484 17.0133L45.8395 17.0362C46.6375 17.0581 47.1875 17.1958 47.5193 17.5323C47.8086 17.8296 47.9613 18.2062 47.9613 18.8389C47.9613 20.1673 47.1358 20.7862 45.6558 20.7793ZM51.6734 20.7793H48.8053V19.4555H51.6619C51.9398 19.4555 52.1384 19.421 52.2613 19.3027C52.3623 19.2086 52.4335 19.0674 52.4335 18.8997C52.4335 18.7206 52.3577 18.5794 52.2544 18.4933C52.1407 18.3991 51.9892 18.3566 51.7297 18.3566C50.353 18.3119 48.6284 18.3991 48.6284 16.4507C48.6284 15.5539 49.1888 14.6159 50.7342 14.6159H53.685V15.9271H50.9845C50.7135 15.9271 50.539 15.9386 50.3932 16.0396C50.2313 16.1407 50.1716 16.2888 50.1716 16.484C50.1716 16.717 50.3094 16.872 50.4919 16.9432C50.6504 16.9972 50.8146 17.0133 51.066 17.0133L51.8571 17.0362C52.6563 17.0581 53.2074 17.1958 53.5392 17.5323C53.8263 17.8296 53.9813 18.2062 53.9813 18.8389C53.9813 20.1673 53.1534 20.7862 51.6734 20.7793Z" fill="#202020"/>
<path d="M49.6427 3H48.1351C47.5714 3 47.1167 3.45583 47.1167 4.01729V4.65338L46.4174 3.49257C46.2314 3.1883 45.9019 3.00115 45.5471 3.00115H43.3024C42.7398 3.00115 42.2851 3.45698 42.2851 4.01844V4.88302L41.7443 3.61772C41.5847 3.24456 41.2173 3.00115 40.8109 3.00115H38.6041C38.3802 3.00115 38.1666 3.07463 37.9967 3.20323C37.8279 3.07578 37.6155 3.00115 37.387 3.00115H35.9644C34.7542 3.00115 33.8586 3.29394 33.1996 3.86573C33.1238 3.38005 32.7208 3.00115 32.2133 3.00115H30.7092C30.3073 3.00115 29.9709 3.23882 29.8032 3.57409C29.7401 3.52816 29.6919 3.47305 29.6207 3.43172C28.9295 3.03215 28.2027 3.00115 27.3266 3.00115H23.9395C23.7489 3.00115 23.5824 3.06774 23.4285 3.15845C23.2781 3.06774 23.1093 3.00115 22.9187 3.00115H17.9999C17.7921 3.00115 17.6119 3.07808 17.4511 3.18371C17.2892 3.07808 17.1089 3.00115 16.9023 3.00115H14.4475C14.041 3.00115 13.6724 3.24571 13.5128 3.62232L12.6379 5.68445L11.6746 3.59246C11.507 3.23193 11.1453 3.00115 10.7503 3.00115H8.34602C7.78341 3.00115 7.32873 3.45698 7.32873 4.01844V4.90369L6.77646 3.61543C6.61571 3.24227 6.2483 3 5.84069 3H3.65455C3.24695 3 2.87953 3.24341 2.71879 3.61657L0.0825595 9.77887C-0.052926 10.0946 -0.0196287 10.4528 0.167525 10.7399C0.355827 11.0246 0.675021 11.1969 1.01718 11.1969H2.61774C3.0265 11.1969 3.39736 10.9489 3.55466 10.57L3.86582 9.82135H5.57202L5.87858 10.5654C6.03473 10.9466 6.40674 11.1957 6.82009 11.1957H9.8157C10.3783 11.1957 10.833 10.7399 10.833 10.1784V10.1543L11.0259 10.5918C11.1889 10.9592 11.554 11.1969 11.9559 11.1969L13.2499 11.1992C13.6541 11.1992 14.0169 10.9615 14.1799 10.5929L14.3751 10.1566V10.1819C14.3751 10.7433 14.8298 11.198 15.3924 11.198H16.9023C17.1089 11.198 17.2892 11.1199 17.4511 11.0155C17.6119 11.1199 17.7921 11.198 17.9999 11.198H22.9187C23.1093 11.198 23.2781 11.1314 23.4285 11.0407C23.5812 11.1314 23.7489 11.198 23.9395 11.198H25.4137C25.9764 11.198 26.431 10.7422 26.431 10.1807V8.95677H26.9936C27.1211 8.95677 27.2118 8.96021 27.2795 8.96481C27.2864 9.06929 27.2841 9.19329 27.2841 9.27596L27.2818 9.41145L27.2876 10.1888C27.2922 10.7468 27.748 11.198 28.306 11.198H29.7918C29.9583 11.198 30.1087 11.1463 30.2476 11.0752C30.3888 11.1475 30.5404 11.198 30.708 11.198H32.2121C32.7058 11.198 33.0962 10.8421 33.1915 10.3782C34.0263 11.0798 35.202 11.198 35.8565 11.198H37.5822C37.9932 11.198 38.3652 10.9454 38.5202 10.5608L38.8199 9.8225H40.5169L40.8281 10.5711C40.9854 10.9489 41.3551 11.1969 41.7673 11.1969H44.7641C45.3267 11.1969 45.7813 10.741 45.7813 10.1796V9.20707L46.685 10.7054C46.8698 11.0097 47.1993 11.1969 47.5576 11.1969H49.6427C50.2053 11.1969 50.66 10.741 50.66 10.1796V4.01729C50.66 3.45583 50.203 3 49.6427 3ZM16.9011 10.1784H15.3913L15.3855 5.35263L13.2499 10.1784H11.9559L9.81684 5.34803V10.1784H6.81894L6.25289 8.80406H3.18724L2.61545 10.1784H1.01488L3.65226 4.01614H5.8384L8.34488 9.8512V4.01614H10.7492L12.677 8.19667L14.4463 4.01614H16.9011V10.1784ZM22.9176 5.29981H19.4708V6.4101H22.8361V7.6731H19.4708V8.90395H22.9176V10.1784H17.9988V4.01614H22.9176V5.29981ZM28.8158 7.31946C29.1384 7.44346 29.414 7.65932 29.5449 7.83844C29.7539 8.145 29.7895 8.41827 29.7895 8.96825V10.1773H28.3037L28.2968 9.39997C28.2968 9.03025 28.3324 8.49749 28.0649 8.20012C27.8502 7.98426 27.5218 7.93718 26.9913 7.93718H25.4126V10.1784H23.9383H23.9372V4.01729H27.3243C28.0775 4.01729 28.6321 4.03681 29.1074 4.31237C29.5736 4.58794 29.8526 4.9898 29.8526 5.67756C29.8526 6.65926 29.197 7.1679 28.8158 7.31946ZM32.2133 10.1784H30.7092V4.01614H32.2133V10.1784ZM49.6427 10.1784H47.5564L44.7629 5.55356V10.1784H41.7662L41.1921 8.80406H38.131L37.5776 10.1784H35.853C35.1377 10.1784 34.2341 10.02 33.722 9.49756C33.2007 8.97399 32.932 8.26441 32.932 7.14494C32.932 6.23098 33.0939 5.39511 33.7208 4.73375C34.195 4.24233 34.9402 4.01614 35.9575 4.01614H37.3801V5.33655H35.9851C35.4489 5.33655 35.1446 5.41577 34.8529 5.70167C34.6015 5.96116 34.4304 6.45143 34.4304 7.09786C34.4304 7.75692 34.5613 8.23226 34.8369 8.54342C35.0654 8.78798 35.4787 8.86147 35.8633 8.86147H36.5236L38.6041 4.01614H40.8109L43.3024 9.84431V4.01614H45.5471L48.1351 8.30804V4.01614H49.6427V10.1784ZM36.4983 6.35499L35.8588 7.84648C35.7175 7.84648 35.6222 7.8304 35.5694 7.81662C35.52 7.72477 35.4523 7.52154 35.4523 7.09901C35.4523 6.67189 35.5556 6.45029 35.5694 6.43077C35.6119 6.38943 35.6475 6.35384 35.9931 6.35384L36.4983 6.35499Z" fill="#202020"/>
<path d="M21.4141 17.7155L23.676 20.2277V15.2871L21.4141 17.7155Z" fill="#202020"/>
<path d="M17.9071 15.8984H14.2168V17.0179H17.4489V18.2763H14.2168V19.5026H17.8359L19.518 17.6919L17.9071 15.8984Z" fill="#202020"/>
</g>
</g>
</svg>
