<svg width="55" height="25" viewBox="0 0 55 25" fill="none" xmlns="http://www.w3.org/2000/svg">
<g opacity="0.5">
<mask id="mask0_439_363" style="mask-type:alpha" maskUnits="userSpaceOnUse" x="0" y="0" width="55" height="25">
<rect width="55" height="25" fill="#D9D9D9"/>
</mask>
<g mask="url(#mask0_439_363)">
<path d="M28.2593 24.3976L28.8603 21.6768H28.1513L27.4258 24.9431H29.8993L30.0191 24.3976H28.2593Z" fill="#202020"/>
<path d="M22.2577 22.9842C21.9933 22.875 21.8227 22.7899 21.7453 22.7274C21.668 22.666 21.6308 22.5886 21.6308 22.4948C21.6308 22.3956 21.6721 22.3118 21.7566 22.2463C21.8404 22.1866 21.9803 22.1548 22.1775 22.1548C22.377 22.1548 22.5281 22.1955 22.6308 22.2793C22.733 22.3626 22.7926 22.4824 22.8097 22.6371L23.4927 22.6075C23.4703 22.31 23.3481 22.0703 23.1249 21.8909C22.903 21.7108 22.5883 21.6211 22.1822 21.6211C21.7819 21.6211 21.4779 21.7108 21.2672 21.8926C21.0564 22.0745 20.9502 22.3012 20.9502 22.5768C20.9502 22.7345 20.9862 22.8708 21.0564 22.9883C21.1273 23.1046 21.2247 23.1996 21.3475 23.2734C21.4708 23.3472 21.6674 23.4381 21.936 23.5485C22.2034 23.6595 22.3681 23.738 22.4278 23.787C22.5134 23.8531 22.5553 23.9352 22.5553 24.032C22.5553 24.143 22.5027 24.2386 22.3994 24.3165C22.2955 24.3951 22.1267 24.4346 21.8947 24.4346C21.6137 24.4346 21.4224 24.3756 21.3179 24.2605C21.2548 24.189 21.217 24.0515 21.2081 23.8496L20.5298 23.8832C20.5239 24.1011 20.5659 24.2935 20.6556 24.4629C20.7459 24.6294 20.8988 24.7617 21.116 24.8561C21.3351 24.9488 21.5913 24.996 21.8888 24.996C22.3203 24.996 22.6568 24.8945 22.8988 24.689C23.1403 24.486 23.2607 24.2404 23.2607 23.9511C23.2607 23.7174 23.1792 23.5279 23.0175 23.3773C22.9089 23.2764 22.6562 23.1453 22.2577 22.9842Z" fill="#202020"/>
<path d="M26.8428 21.9977C26.5795 21.7469 26.2342 21.6217 25.8056 21.6182C25.4874 21.6182 25.2023 21.6807 24.9526 21.8023C24.7023 21.9251 24.4945 22.0928 24.3298 22.3041C24.1657 22.5149 24.0429 22.7646 23.9626 23.0503C23.9024 23.2634 23.8711 23.4677 23.8711 23.6601C23.8711 23.8685 23.9165 24.0739 24.0075 24.2788C24.0984 24.4836 24.2536 24.6548 24.4726 24.7924C24.6911 24.9317 24.962 25.0002 25.2843 25.0002C25.6551 25.0002 25.9892 24.9134 26.2826 24.7404C26.5766 24.5663 26.8104 24.3183 26.9821 23.9948C27.1522 23.6725 27.2383 23.3396 27.2383 22.9948C27.2383 22.5816 27.1073 22.2498 26.8428 21.9977ZM26.3552 23.7162C26.2401 23.9594 26.0949 24.1401 25.9166 24.2599C25.7395 24.3791 25.5547 24.4399 25.3635 24.4399C25.1261 24.4399 24.9366 24.3632 24.792 24.2121C24.6474 24.0598 24.5742 23.872 24.5742 23.6483C24.5742 23.2847 24.684 22.9482 24.9012 22.6418C25.1202 22.3366 25.403 22.1837 25.7507 22.1837C25.9768 22.1837 26.1633 22.2569 26.3098 22.4033C26.4562 22.5497 26.5288 22.7504 26.5288 23.0066C26.5288 23.2386 26.4709 23.4736 26.3552 23.7162Z" fill="#202020"/>
<path d="M33.0981 21.9977C32.8342 21.7469 32.49 21.6217 32.0615 21.6182C31.7415 21.6182 31.457 21.6807 31.2067 21.8023C30.957 21.9251 30.7492 22.0928 30.5851 22.3041C30.4203 22.5149 30.2981 22.7646 30.2179 23.0503C30.1565 23.2634 30.127 23.4677 30.127 23.6601C30.127 23.8685 30.1718 24.0739 30.2633 24.2788C30.3536 24.4836 30.5089 24.6548 30.7261 24.7924C30.9463 24.9317 31.2161 25.0002 31.539 25.0002C31.9092 25.0002 32.2421 24.9134 32.5373 24.7404C32.8313 24.5663 33.0633 24.3183 33.2362 23.9948C33.408 23.6725 33.4942 23.3396 33.4942 22.9948C33.4942 22.5816 33.3608 22.2498 33.0981 21.9977ZM32.6111 23.7168C32.4954 23.96 32.349 24.1412 32.1725 24.2605C31.9948 24.3797 31.8094 24.4405 31.6187 24.4405C31.3808 24.4405 31.1901 24.3638 31.0461 24.2127C30.9009 24.0604 30.8294 23.8732 30.8294 23.6489C30.8294 23.2853 30.9392 22.9488 31.1571 22.6424C31.3755 22.3372 31.6577 22.1843 32.006 22.1843C32.2321 22.1843 32.4174 22.2569 32.565 22.4033C32.7114 22.5497 32.784 22.7504 32.784 23.0066C32.784 23.2386 32.7256 23.4736 32.6111 23.7168Z" fill="#202020"/>
<path d="M30.5802 8.30371C30.0183 8.66322 29.5212 8.98023 29.0359 9.29074C29.8494 11.3888 29.5401 12.8817 28.0944 13.9006C27.504 14.318 26.8246 14.5116 26.1091 14.488C24.9579 14.4491 24.0559 13.8995 23.3694 12.9685C22.8569 13.3144 22.3805 13.6362 21.8711 13.9815C22.9951 15.576 24.4874 16.4013 26.3682 16.3369C28.4427 16.2673 30.0135 15.2643 30.9126 13.3747C31.7261 11.671 31.582 9.98261 30.5802 8.30371Z" fill="#202020"/>
<path d="M27.8615 0.000172074C22.3797 0.0350016 17.9841 4.44478 18 9.89353C18.0148 15.2903 22.486 19.7344 27.858 19.693C33.3965 19.6505 37.7637 15.2295 37.713 9.71348C37.6669 4.3698 33.2022 -0.0317058 27.8615 0.000172074ZM27.8131 18.9911C22.6654 18.902 18.6429 14.7815 18.738 9.68987C18.8312 4.66674 23.0025 0.599948 27.953 0.70916C33.0588 0.822503 37.0707 4.93298 36.9827 9.96555C36.8936 15.0076 32.7595 19.0761 27.8131 18.9911Z" fill="#202020"/>
<path d="M26.8247 4.63465C24.1445 6.43929 23.9663 9.87915 25.3978 11.7871C25.8831 11.4795 26.3695 11.1714 26.8801 10.8473C25.7361 8.74925 26.6948 7.01132 27.804 6.23444C29.2527 5.21848 30.758 5.49358 32.5532 7.14473C33.0391 6.81415 33.5344 6.47825 34.0237 6.14471C32.6583 3.74443 29.1966 3.03839 26.8247 4.63465Z" fill="#202020"/>
</g>
</g>
</svg>
