<svg width="55" height="25" viewBox="0 0 55 25" fill="none" xmlns="http://www.w3.org/2000/svg">
<g opacity="0.5">
<mask id="mask0_439_291" style="mask-type:alpha" maskUnits="userSpaceOnUse" x="0" y="0" width="55" height="25">
<rect width="55" height="25" fill="#D9D9D9"/>
</mask>
<g mask="url(#mask0_439_291)">
<path d="M47.8512 19.2376C47.8158 19.1721 47.765 19.123 47.6986 19.0876C47.6348 19.0523 47.5693 19.0342 47.5011 19.0342C47.4322 19.0342 47.3666 19.0523 47.3028 19.0876C47.239 19.123 47.1865 19.1721 47.1511 19.2376C47.1158 19.3006 47.0977 19.3678 47.0977 19.4377C47.0977 19.5075 47.1158 19.5748 47.1511 19.6377C47.1882 19.7015 47.2382 19.7532 47.3011 19.7886C47.3649 19.8239 47.4322 19.842 47.5029 19.842C47.571 19.842 47.6382 19.8239 47.702 19.7886C47.765 19.7532 47.815 19.7015 47.8512 19.6377C47.8865 19.5748 47.9046 19.5066 47.9046 19.4377C47.9046 19.3678 47.8874 19.3006 47.8512 19.2376ZM47.6391 19.5877H47.5512L47.4977 19.4549H47.4451V19.5877H47.3744V19.2497H47.5158C47.533 19.2497 47.5684 19.2506 47.6037 19.2687C47.6218 19.2859 47.6391 19.3196 47.6391 19.3532C47.6391 19.3903 47.6218 19.4256 47.5865 19.4411L47.6391 19.5877Z" fill="#202020"/>
<path d="M47.5322 19.3194C47.5322 19.3125 47.4968 19.3125 47.4787 19.3125H47.4434V19.3996H47.4968C47.4968 19.3996 47.5149 19.3996 47.5322 19.3927C47.5503 19.3849 47.5503 19.3685 47.5503 19.353C47.5503 19.3401 47.5503 19.3263 47.5322 19.3194Z" fill="#202020"/>
<path d="M36.2573 0C33.0303 0.000862158 30.0903 1.22426 27.8746 3.23137C25.6571 1.22513 22.7189 0.0025867 19.4961 0.0025867C19.4694 0.0025867 19.4427 0.0025867 19.4159 0.0025867C12.5549 0.0474189 7 5.62903 7 12.4996C7 19.3986 12.5989 24.9957 19.4961 24.9957C22.7189 24.9957 25.6562 23.7731 27.8737 21.7669C27.4107 21.3488 26.9917 20.8858 26.596 20.4012H29.1773C28.7876 20.8789 28.3626 21.3255 27.9082 21.7393H27.9056C27.9065 21.741 27.9065 21.741 27.9065 21.741C27.8961 21.7505 27.8849 21.7574 27.8746 21.7678C30.0912 23.7775 33.0346 25.0009 36.2625 25C43.1649 24.9983 48.756 19.4011 48.7543 12.5004C48.7543 12.4978 48.7543 12.4961 48.7543 12.4944C48.7526 5.59368 43.1563 0 36.2573 0ZM26.7382 4.52288H29.1126C29.4644 4.9462 29.7894 5.39366 30.0826 5.86095H25.8468C26.1175 5.41349 26.4175 4.95569 26.7382 4.52288ZM25.107 7.17402H30.8016C31.0059 7.60768 31.1853 8.05428 31.3404 8.51295H24.432C24.5001 8.38363 24.7415 7.86288 25.107 7.17402ZM18.8098 15.4964H17.3269L18.2098 10.8666L16.1794 15.4964H14.8379L14.5904 10.8977L13.7076 15.4964H12.3652L13.5136 9.47684H15.8268L15.9328 13.2048L17.5752 9.47684H19.9772L18.8098 15.4964ZM24.0552 12.8953L23.7371 14.6343L23.6845 14.9455L23.6491 15.1938L23.631 15.3611L23.6138 15.4938H22.3783L22.4137 14.9878C22.0438 15.3912 21.5308 15.5783 20.8601 15.5783C20.0651 15.5783 19.5177 15.0326 19.5177 14.2429C19.5177 13.0513 20.4712 12.3547 22.1128 12.3547C22.2714 12.3547 22.4835 12.3694 22.7128 12.3927C22.7482 12.2314 22.7663 12.1642 22.7663 12.0745C22.7663 11.7512 22.5007 11.6305 21.8127 11.6305C21.3886 11.6305 20.9118 11.6814 20.5945 11.7659L20.3824 11.8193L20.2591 11.8512L20.4531 10.7485C21.1946 10.5606 21.6713 10.4907 22.2188 10.4907C23.4896 10.4907 24.1613 10.9882 24.1613 11.9262C24.1613 12.1694 24.144 12.3513 24.0552 12.8953ZM27.0055 10.4795C28.2229 10.4795 29.0006 11.1718 29.0006 12.2573C29.0006 12.6203 28.9471 12.9712 28.8221 13.4678H25.8925C25.8744 13.5428 25.8744 13.5764 25.8744 13.623C25.8744 14.1894 26.3158 14.4782 27.1633 14.4782C27.6935 14.4782 28.1703 14.3834 28.6997 14.1678L28.4531 15.3938C27.9582 15.5266 27.4642 15.5913 26.9521 15.5913C25.2924 15.5913 24.4268 14.8386 24.4268 13.3962C24.4268 11.7176 25.5217 10.4813 27.0055 10.4795ZM30.0981 19.1158H25.664C25.395 18.6847 25.1424 18.2424 24.926 17.7777H30.8257C30.6093 18.2407 30.3671 18.6856 30.0981 19.1158ZM32.8147 11.7245C32.4259 11.6797 32.0379 11.6529 31.737 11.6529C31.2594 11.6529 31.0128 11.7874 31.0128 12.0504C31.0128 12.2797 31.0835 12.3349 31.7017 12.5832C32.4595 12.8806 32.7613 13.2746 32.7613 13.9463C32.7613 15.0636 32.0371 15.5801 30.4473 15.5801C30.2541 15.5801 29.9894 15.5654 29.636 15.5395C29.4592 15.5266 29.3187 15.5128 29.229 15.4947L28.9643 15.4464L28.8936 15.4326L29.1057 14.3032C29.5825 14.4377 29.9903 14.4963 30.4481 14.4963C31.0309 14.4963 31.2956 14.3601 31.2956 14.0549C31.2956 13.8307 31.2068 13.7583 30.6068 13.5143C29.8127 13.1945 29.4592 12.7668 29.4592 12.1495C29.4592 11.2451 30.042 10.4925 31.7026 10.4925C32.056 10.4925 32.6389 10.5356 33.026 10.589L32.8147 11.7245ZM35.1296 14.4006C35.2874 14.4006 35.4107 14.3851 35.5167 14.3532L35.3228 15.4395C34.9167 15.5507 34.5994 15.5999 34.2632 15.5999C33.5036 15.5999 33.0975 15.218 33.0975 14.5239C33.0975 14.386 33.1148 14.2394 33.1329 14.0842L33.2217 13.6023L33.2915 13.2152L33.9804 9.47684H35.4452L35.234 10.6011H35.9927L35.7806 11.7926H35.021L34.633 13.8351C34.6149 13.9239 34.6149 13.9911 34.6149 14.0368C34.6149 14.2911 34.7744 14.3989 35.1296 14.4006ZM38.7412 11.9788C38.0351 11.9788 37.8066 12.5047 37.2764 15.499H35.7926L36.6936 10.602H38.036L37.8946 11.3451C38.3541 10.7666 38.7059 10.5494 39.1835 10.5494C39.237 10.5494 39.2904 10.5545 39.343 10.5614C39.343 10.564 39.3973 10.5735 39.4689 10.5908C39.4861 10.5959 39.5034 10.5959 39.6275 10.6442L39.0999 12.028L38.9231 11.9918C38.8524 11.9831 38.7998 11.9788 38.7412 11.9788ZM41.3613 15.6275C39.6801 15.6275 39.0111 14.6119 39.0111 13.3695C39.0111 11.6357 40.1586 10.4588 41.9243 10.4588C43.4624 10.4588 44.2745 11.4262 44.2745 12.6677C44.2745 12.972 44.2745 12.9927 44.2392 13.2772C44.009 14.9059 42.8787 15.6292 41.3613 15.6275ZM44.3978 15.4964C44.1857 15.4964 44.009 15.3249 44.009 15.1128C44.009 14.9041 44.1857 14.7326 44.3978 14.7326C44.6099 14.7326 44.7867 14.9041 44.7867 15.1128C44.7867 15.3257 44.6099 15.4964 44.3978 15.4964Z" fill="#202020"/>
<path d="M44.3977 14.8232C44.239 14.8232 44.0977 14.9534 44.0977 15.1129C44.0977 15.2767 44.239 15.4061 44.3977 15.4061C44.5572 15.4061 44.6805 15.275 44.6805 15.1129C44.6805 14.9543 44.5572 14.8232 44.3977 14.8232ZM44.5382 15.2836H44.4494L44.396 15.1517H44.3425V15.2836H44.2718V14.9448H44.4132C44.4322 14.9448 44.4675 14.9465 44.5029 14.9646C44.5201 14.981 44.5382 15.0146 44.5382 15.0491C44.5382 15.0853 44.5201 15.1215 44.4848 15.1371L44.5382 15.2836Z" fill="#202020"/>
<path d="M44.4326 15.0136C44.4334 15.0059 44.3981 15.0059 44.3808 15.0059H44.3438V15.0929H44.3972C44.3972 15.0929 44.4153 15.0929 44.4326 15.086C44.4507 15.0783 44.4507 15.0619 44.4507 15.0472C44.4507 15.0343 44.4507 15.0205 44.4326 15.0136Z" fill="#202020"/>
<path d="M26.9868 11.6006C26.51 11.6006 26.1746 11.9118 26.0332 12.4791L27.6756 12.4826C27.6756 12.3757 27.6756 12.2929 27.6756 12.2291C27.6756 11.8316 27.4282 11.6006 26.9868 11.6006Z" fill="#202020"/>
<path d="M22.2019 13.2969C21.3734 13.296 20.9492 13.5469 20.9492 14.0418C20.9492 14.3461 21.1441 14.541 21.4786 14.541C22.0795 14.541 22.5028 14.0392 22.5382 13.315C22.3787 13.2986 22.308 13.2969 22.2019 13.2969Z" fill="#202020"/>
<path d="M41.8901 11.6582C41.1305 11.6582 40.6719 12.5505 40.6719 13.3368C40.6719 14.0024 40.9891 14.449 41.5194 14.4387C41.8384 14.4387 42.5255 13.9998 42.6497 13.2385C42.6842 13.0601 42.7023 12.8644 42.7023 12.6514C42.7023 12.141 42.491 11.6565 41.8901 11.6582Z" fill="#202020"/>
</g>
</g>
</svg>
