<svg width="55" height="25" viewBox="0 0 55 25" fill="none" xmlns="http://www.w3.org/2000/svg">
<g opacity="0.5">
<mask id="mask0_439_216" style="mask-type:alpha" maskUnits="userSpaceOnUse" x="0" y="0" width="55" height="25">
<rect width="55" height="25" fill="#D9D9D9"/>
</mask>
<g mask="url(#mask0_439_216)">
<path d="M22.0218 4.28125L19.2266 20.6845H23.697L26.4945 4.28125H22.0218Z" fill="#202020"/>
<path d="M15.4777 4.30032L11.0992 15.4869L10.6323 13.7978C9.76883 11.7626 7.31743 8.83978 4.43945 6.99778L8.4431 20.6771L13.1734 20.6691L20.2137 4.29688L15.4777 4.30032Z" fill="#202020"/>
<path d="M8.93634 5.47423C8.67648 4.47505 7.92336 4.17725 6.98856 4.1416H0.0574906L0 4.46815C5.39377 5.77664 8.96279 8.92942 10.4437 12.7204L8.93634 5.47423Z" fill="#202020"/>
<path d="M35.5547 7.42644C37.0172 7.40344 38.0774 7.72309 38.9006 8.05424L39.3042 8.24396L39.909 4.68874C39.0236 4.35644 37.6358 4 35.9042 4C31.4866 4 28.3729 6.22489 28.3488 9.41332C28.32 11.7693 30.5668 13.0847 32.2639 13.87C34.0059 14.6749 34.59 15.1865 34.5819 15.9052C34.5681 17.0032 33.193 17.5068 31.9086 17.5068C30.1184 17.5068 29.1675 17.2596 27.6991 16.6479L27.1231 16.3858L26.4941 20.0571C27.5405 20.5159 29.471 20.9103 31.4751 20.931C36.1744 20.931 39.2283 18.7325 39.2605 15.3257C39.2801 13.4618 38.0877 12.0395 35.5041 10.8724C33.9403 10.1113 32.9837 9.60533 32.9929 8.83726C32.9929 8.15542 33.8047 7.42644 35.5547 7.42644Z" fill="#202020"/>
<path d="M51.3833 4.30176H47.9293C46.8565 4.30176 46.0585 4.59381 45.5871 5.66314L38.9492 20.6958H43.6439C43.6439 20.6958 44.4097 18.6744 44.5833 18.2317C45.0973 18.2317 49.6586 18.2386 50.3082 18.2386C50.4416 18.8112 50.8532 20.6958 50.8532 20.6958H55.0006L51.3833 4.30176ZM45.8699 14.8743C46.2379 13.9326 47.651 10.29 47.651 10.29C47.6269 10.3348 48.0155 9.34138 48.2466 8.72394L48.5479 10.1382C48.5479 10.1382 49.4045 14.0545 49.5838 14.8743H45.8699Z" fill="#202020"/>
</g>
</g>
</svg>
