<svg width="55" height="25" viewBox="0 0 55 25" fill="none" xmlns="http://www.w3.org/2000/svg">
<g opacity="0.5">
<mask id="mask0_439_234" style="mask-type:alpha" maskUnits="userSpaceOnUse" x="0" y="0" width="55" height="25">
<rect width="55" height="25" fill="#D9D9D9"/>
</mask>
<g mask="url(#mask0_439_234)">
<path d="M9.85758 7.42504C9.67755 7.06389 9.39278 6.76603 9.03927 6.54236C8.67048 6.3165 8.23514 6.1583 7.73761 6.06446C7.23135 5.97281 6.64653 5.93135 5.96897 5.9248L2.84084 5.92699C2.5157 5.93135 2.1971 6.18448 2.12072 6.49871L0.0160297 15.666C-0.0603459 15.9758 0.143686 16.2355 0.468828 16.2355H1.96688C2.29202 16.2355 2.61389 15.9835 2.6859 15.666L3.1998 13.4402C3.26854 13.1303 3.58932 12.8717 3.91774 12.8717H4.34653C6.17845 12.8695 7.59686 12.4953 8.61593 11.7457C9.64045 10.9951 10.1456 10.0033 10.1456 8.77471C10.1445 8.2368 10.0562 7.7851 9.85758 7.42504ZM6.62689 10.4201C6.17409 10.7517 5.54454 10.9176 4.73277 10.9176H4.36617C4.03994 10.9176 3.84027 10.6601 3.91119 10.3459L4.3618 8.39938C4.42509 8.08733 4.7535 7.82874 5.07537 7.83092L5.56636 7.82765C6.13918 7.82765 6.5767 7.92694 6.86911 8.11897C7.15825 8.30882 7.30336 8.61105 7.30118 9.01147C7.30991 9.6203 7.07751 10.0884 6.62689 10.4201Z" fill="#202020"/>
<path d="M52.5618 6.64317L52.468 6.67154L52.3425 6.68899L52.1887 6.66499L52.1101 6.58861L52.0741 6.46859L52.072 6.28857V5.62192H52.5728V5.4157H52.072V5H51.8243V5.4157H51.6562V5.62192H51.8243V6.39767L51.9399 6.78173L52.2803 6.90393L52.4233 6.89193L52.5749 6.86247V6.64317H52.5618Z" fill="#202020"/>
<path d="M54.8855 5.52132L54.5276 5.37402L54.2635 5.42749L53.9951 5.6086L53.8391 5.43512L53.586 5.37511L53.3427 5.42858L53.1125 5.57696V5.41548H52.8691V6.87208H53.1114V5.78427L53.3154 5.6577L53.5183 5.60751L53.6842 5.63697L53.766 5.72099L53.802 5.86064L53.814 6.04067V6.87317H54.0573V5.94138L54.053 5.86392L54.0486 5.793L54.2559 5.66098L54.461 5.6097L54.6214 5.63915L54.7087 5.72317L54.7392 5.86392L54.7556 6.04176V6.87426H55V5.92829L54.8855 5.52132Z" fill="#202020"/>
<path d="M17.0819 8.73668C16.5167 8.41809 15.6242 8.25879 14.4043 8.25879C13.801 8.25879 13.1998 8.30571 12.5921 8.39954C12.1436 8.46828 12.1 8.48137 11.8239 8.54138C11.2544 8.66576 11.1649 9.23421 11.1649 9.23421L10.9816 9.98815C10.878 10.4693 11.1551 10.4508 11.2708 10.4104C11.5195 10.3362 11.6581 10.2598 12.1665 10.1464C12.6521 10.0362 13.1638 9.95324 13.5697 9.95869C14.1687 9.95869 14.6269 10.022 14.9324 10.1507C15.2336 10.2817 15.3841 10.5064 15.3841 10.8316L15.358 11.0432L15.1419 11.1763C14.292 11.2298 13.6777 11.3084 12.9325 11.4164C12.2036 11.5178 11.5643 11.6957 11.0329 11.939C10.4623 12.19 10.0389 12.5271 9.74325 12.9559C9.45739 13.3869 9.31445 13.9095 9.31445 14.5227C9.31445 15.0999 9.52176 15.5767 9.92437 15.9455C10.3292 16.3077 10.8638 16.4844 11.5032 16.4844C11.908 16.4823 12.2211 16.4506 12.4437 16.3972L13.1692 16.1473L13.7835 15.8069L14.3487 15.4337L14.3563 15.4446L14.2996 15.6847L14.2963 15.6945V15.6967C14.2352 15.9891 14.412 16.2291 14.6968 16.2575L14.7022 16.264H14.7284H15.8773H16.0933L16.113 16.2553C16.4119 16.2204 16.6923 15.9804 16.7578 15.6945L17.85 10.9669L17.9067 10.5817L17.9329 10.2206C17.9373 9.55063 17.6481 9.05419 17.0819 8.73668ZM14.6662 14.0524L14.4327 14.3601L13.8435 14.6645C13.5664 14.7769 13.3034 14.8336 13.0601 14.8336C12.6913 14.8336 12.4022 14.7802 12.2069 14.6711L11.9178 14.1092C11.9178 13.8048 11.9876 13.5636 12.1371 13.3781L12.7721 12.9461C13.0438 12.8544 13.3755 12.777 13.7595 12.7235C14.1021 12.6809 14.7786 12.6035 14.867 12.6013L14.9706 12.7835C14.9499 12.8872 14.7579 13.6902 14.6662 14.0524Z" fill="#202020"/>
<path d="M44.2908 8.74266C43.7224 8.42406 42.831 8.26367 41.6144 8.26367C41.0111 8.26367 40.4088 8.31059 39.8032 8.40769C39.3537 8.47316 39.309 8.48734 39.0318 8.54626C38.4634 8.66955 38.375 9.24019 38.375 9.24019L38.1917 9.99304C38.0891 10.4742 38.3597 10.4524 38.4863 10.4153C38.7361 10.3411 38.8704 10.268 39.3744 10.1502C39.8578 10.041 40.3739 9.9603 40.7808 9.96249C41.3777 9.96249 41.8359 10.0269 42.1403 10.1556C42.4436 10.2865 42.592 10.5135 42.592 10.8354L42.5691 11.0459L42.3553 11.1823C41.4966 11.2336 40.8812 11.3122 40.1436 11.4202C39.417 11.5216 38.7754 11.6984 38.243 11.9428C37.6745 12.1948 37.2457 12.532 36.9533 12.9619C36.6642 13.3928 36.5234 13.9144 36.5234 14.5221C36.5234 15.1037 36.7286 15.5805 37.1366 15.9471C37.5436 16.3082 38.0728 16.4893 38.7121 16.4893C39.1148 16.485 39.4279 16.4588 39.6516 16.401L40.375 16.1544L40.9947 15.814L41.5555 15.4364L41.5653 15.4484L41.514 15.6907L41.5086 15.695L41.5108 15.6994C41.4431 15.9918 41.621 16.234 41.909 16.2602L41.9112 16.2657H41.9374C42.1261 16.2657 42.7786 16.2657 43.0896 16.2657H43.3012L43.3241 16.258C43.6198 16.222 43.8991 15.982 43.9613 15.6928L45.0568 10.9717L45.1146 10.5844L45.1462 10.2222C45.1473 9.55442 44.8615 9.06016 44.2908 8.74266ZM41.8806 14.0584L41.6373 14.3694L41.0536 14.6716C40.7765 14.7829 40.5124 14.8407 40.2735 14.8407C39.8927 14.8407 39.6112 14.7862 39.4214 14.677L39.1289 14.1173C39.1289 13.8118 39.1999 13.5729 39.3428 13.3841C39.4879 13.2063 39.7094 13.0601 39.9843 12.9531C40.2528 12.8615 40.5844 12.7873 40.9707 12.7316C41.3111 12.6891 41.9854 12.6094 42.0727 12.6084L42.1785 12.7906C42.1632 12.8942 41.9701 13.694 41.8806 14.0584Z" fill="#202020"/>
<path d="M37.0635 7.45933C36.8758 7.096 36.5943 6.8025 36.2386 6.57338C35.8742 6.34643 35.4421 6.18713 34.937 6.09548C34.4405 6.00711 33.8481 5.9591 33.1749 5.95801L30.0424 5.96019C29.7161 5.96564 29.403 6.21878 29.3277 6.52973L27.2208 15.7014C27.1445 16.0123 27.3539 16.2698 27.6725 16.2698L29.1728 16.2676C29.4914 16.2698 29.8176 16.0145 29.8929 15.7003L30.4002 13.4734C30.4744 13.1635 30.7963 12.9027 31.1204 12.9049H31.5492C33.3833 12.9049 34.8049 12.5274 35.8284 11.78C36.8398 11.0239 37.3515 10.0343 37.3515 8.80464C37.3461 8.26892 37.2533 7.81612 37.0635 7.45933ZM33.8328 10.4587C33.3811 10.7839 32.7504 10.9497 31.943 10.9497H31.5699C31.248 10.953 31.0396 10.6911 31.1116 10.3791L31.5655 8.43585C31.6321 8.12489 31.9572 7.86413 32.2813 7.8674L32.7668 7.86413C33.3429 7.8674 33.775 7.96232 34.0695 8.15435C34.363 8.34638 34.5016 8.64752 34.5049 9.04686C34.5082 9.65568 34.2823 10.1248 33.8328 10.4587Z" fill="#202020"/>
<path d="M49.9071 6.60407C49.9759 6.29093 49.7795 6.03671 49.4576 6.04107H48.1156C47.8406 6.04107 47.593 6.2451 47.4719 6.49605L47.3977 6.61171L47.33 6.90848L45.4544 15.4342L45.3933 15.696L45.3955 15.7026C45.3333 15.983 45.5057 16.1947 45.772 16.235L45.7949 16.2667H47.1882C47.4609 16.2667 47.7173 16.0594 47.8341 15.8041L47.9061 15.695L49.9115 6.60516L49.9071 6.60407Z" fill="#202020"/>
<path d="M27.2614 8.37219C26.9068 8.37656 25.4655 8.37219 25.4655 8.37219C25.1425 8.37219 24.7279 8.63296 24.5228 8.94392C24.5228 8.94392 22.3777 12.6252 22.1693 12.9951L21.9205 12.9918L21.2528 8.96901C21.1786 8.6526 20.848 8.38201 20.4367 8.38201L19.0946 8.3842C18.7717 8.3842 18.5731 8.64169 18.6462 8.95592C18.6462 8.95592 19.6653 14.755 19.8693 16.12C19.9642 16.8728 19.8573 17.007 19.8573 17.007L18.5305 19.3179C18.3341 19.6321 18.44 19.8886 18.7618 19.8886L20.3134 19.8864C20.6363 19.8864 21.0608 19.6321 21.2528 19.3168L27.221 9.22215C27.221 9.22215 27.7949 8.36019 27.2614 8.37219Z" fill="#202020"/>
</g>
</g>
</svg>
